<svg id="visual" viewBox="0 0 960 540" width="960" height="540" xmlns="http://www.w3.org/2000/svg" xmlns:xlink="http://www.w3.org/1999/xlink" version="1.1"><rect x="0" y="0" width="960" height="540" fill="#00050a"></rect><defs><linearGradient id="grad1_0" x1="43.8%" y1="0%" x2="100%" y2="100%"><stop offset="14.444444444444446%" stop-color="#00050a" stop-opacity="1"></stop><stop offset="85.55555555555554%" stop-color="#00050a" stop-opacity="1"></stop></linearGradient></defs><defs><linearGradient id="grad2_0" x1="0%" y1="0%" x2="56.3%" y2="100%"><stop offset="14.444444444444446%" stop-color="#00050a" stop-opacity="1"></stop><stop offset="85.55555555555554%" stop-color="#00050a" stop-opacity="1"></stop></linearGradient></defs><g transform="translate(960, 0)"><path d="M0 270C-16.2 271.3 -32.5 272.5 -46.9 265.9C-61.3 259.3 -73.8 244.7 -85.5 234.9C-97.2 225.2 -108.1 220.2 -127 220C-145.9 219.8 -172.7 224.3 -169.7 202.2C-166.7 180.1 -133.7 131.3 -138.7 116.3C-143.6 101.4 -186.4 120.2 -207 119.5C-227.5 118.8 -225.8 98.7 -228.3 83.1C-230.9 67.5 -237.6 56.3 -245.2 43.2C-252.9 30.1 -261.4 15.1 -270 0L0 0Z" fill="#e79f39"></path></g><g transform="translate(0, 540)"><path d="M0 -270C18.9 -278.2 37.9 -286.4 46.5 -263.9C55.2 -241.5 53.6 -188.4 63.6 -174.8C73.6 -161.1 95.2 -186.9 113 -195.7C130.8 -204.5 145 -196.4 160.1 -190.7C175.1 -185.1 191.2 -181.8 206.8 -173.6C222.5 -165.3 237.8 -152 223.4 -129C209.1 -106 165.1 -73.2 157.9 -57.5C150.6 -41.7 180 -42.9 204.8 -36.1C229.6 -29.4 249.8 -14.7 270 0L0 0Z" fill="#e79f39"></path></g></svg>