<svg id="visual" viewBox="0 0 2560 1440" width="2560" height="1440" xmlns="http://www.w3.org/2000/svg" xmlns:xlink="http://www.w3.org/1999/xlink" version="1.1"><rect x="0" y="0" width="2560" height="1440" fill="#001220"></rect><defs><linearGradient id="grad1_0" x1="43.8%" y1="0%" x2="100%" y2="100%"><stop offset="14.444444444444446%" stop-color="#001220" stop-opacity="1"></stop><stop offset="85.55555555555554%" stop-color="#001220" stop-opacity="1"></stop></linearGradient></defs><defs><linearGradient id="grad2_0" x1="0%" y1="0%" x2="56.3%" y2="100%"><stop offset="14.444444444444446%" stop-color="#001220" stop-opacity="1"></stop><stop offset="85.55555555555554%" stop-color="#001220" stop-opacity="1"></stop></linearGradient></defs><g transform="translate(2560, 0)"><path d="M0 1296C-127.4 1183.5 -254.8 1071 -425.5 1027.4C-596.3 983.7 -810.3 1008.8 -916.4 916.4C-1022.6 824 -1020.9 614 -1066.2 441.6C-1111.4 269.3 -1203.7 134.6 -1296 0L0 0Z" fill="#FBAE3C"></path></g><g transform="translate(0, 1440)"><path d="M0 -1296C171.4 -1279 342.9 -1262 496 -1197.3C649 -1132.7 783.8 -1020.2 894.5 -894.5C1005.2 -768.7 1091.9 -629.7 1154.8 -478.4C1217.8 -327.1 1256.9 -163.5 1296 0L0 0Z" fill="#FBAE3C"></path></g></svg>