<?xml version="1.0" encoding="UTF-8" standalone="no"?>
<!-- Created with Inkscape (http://www.inkscape.org/) -->

<svg
   width="21.508862mm"
   height="24.344606mm"
   viewBox="0 0 21.508862 24.344606"
   version="1.1"
   id="svg1"
   xml:space="preserve"
   xmlns="http://www.w3.org/2000/svg"
   xmlns:svg="http://www.w3.org/2000/svg"><defs
     id="defs1" /><g
     id="g3"
     transform="matrix(0.26458333,0,0,0.26458333,-2.4747137,-0.13083554)"
     style="fill:#e79f39;fill-opacity:1"><g
       data-v-423bf9ae=""
       id="45284f3e-7844-47b5-b41c-04b2a84608e1"
       fill="#000000"
       style="fill:#e79f39;fill-opacity:1"><path
         d=""
         id="path1-8"
         style="fill:#e79f39;fill-opacity:1" /></g><g
       data-v-423bf9ae=""
       id="b3016b51-b719-420d-88a7-1b7d0d22d704"
       transform="matrix(1.0111111,0,0,1.0111111,-0.55555695,-4.0555611)"
       stroke="none"
       fill="#000000"
       style="fill:#e79f39;fill-opacity:1"><path
         clip-rule="evenodd"
         d="M 82.9,35.3 85.4,19.2 77,4.5 63.7,14.8 62.2,26.5 49.4,23.6 37.6,26.5 36.1,14.8 23,4.5 14.6,19.2 17.1,35.3 9.8,45.6 14.2,60.3 30.3,73.1 40.7,92.6 50.5,95.5 59.3,92.6 69.7,73.1 85.8,60.3 90.2,45.6 Z M 38,67.6 33.5,63.2 21.7,55.9 23,50 h 5.9 L 38,61.7 Z M 50,89.7 46.1,87.5 47.3,84 h 5.3 L 54,87.5 Z M 65.3,63.2 61,67.6 V 61.7 L 69.6,50 h 5.9 l 1.5,5.9 z"
         id="path2"
         style="fill:#e79f39;fill-opacity:1" /></g></g></svg>
